# xmcd
#
# Track frame offsets:
#	150
#	17632
#	31519
#	47440
#	71386
#	85357
#	103535
#	114970
#	135210
#	154865
#	172403
#
# Disc length: 2593 seconds
#
# Revision: 1
# Processed by: cddbd v1.4PL0 Copyright (c) Steve Scherf et al.
# Submitted via: audiograbber 1.81.02
#
DISCID=7c0a1f0b
DTITLE=Green Rode Shotgun - Bang
DYEAR=1900
DGENRE=
TTITLE0=All the Same
TTITLE1=Hopeless Crusades
TTITLE2=Into the Light
TTITLE3=My Will
TTITLE4=Nothing is Good Enough
TTITLE5=Numbers on the Wall
TTITLE6=Streets of the City
TTITLE7=Let It Show
TTITLE8=Nothing New
TTITLE9=Sideburn
TTITLE10=As Pieces Fall
EXTD=
EXTT0=
EXTT1=
EXTT2=
EXTT3=
EXTT4=
EXTT5=
EXTT6=
EXTT7=
EXTT8=
EXTT9=
EXTT10=
PLAYORDER=
